<svg width="25" height="25" viewBox="0 0 25 25" fill="none" xmlns="http://www.w3.org/2000/svg">
<mask id="path-1-outside-1_1465_394" maskUnits="userSpaceOnUse" x="0" y="0" width="26" height="25" fill="black">
<rect fill="white" width="26" height="25"/>
<path d="M13.0123 8.0277L13.854 10.6364L16.5993 10.6309C16.8955 10.6309 17.1367 10.872 17.1367 11.1682C17.1367 11.347 17.0495 11.5056 16.9148 11.6028L16.9157 11.6047L14.692 13.2139L15.5448 15.8226C15.6374 16.105 15.4825 16.4085 15.1991 16.5011C15.0148 16.5607 14.8213 16.5158 14.6838 16.3994L12.4987 14.8057L10.2806 16.4241C10.0413 16.5983 9.70566 16.5461 9.53052 16.3067C9.42599 16.1628 9.40306 15.983 9.4535 15.8253H9.45166L10.3044 13.2167L8.08081 11.6074C7.83966 11.4332 7.78647 11.0957 7.96069 10.8555C8.07439 10.6996 8.25686 10.6217 8.43566 10.6345L11.1415 10.6391L11.9842 8.02669C12.075 7.74428 12.3775 7.58838 12.66 7.67916C12.8324 7.73418 12.958 7.86897 13.0084 8.02944L13.0123 8.0277ZM12.4997 18.4882C14.153 18.4882 15.6504 17.8179 16.7342 16.7349C17.818 15.6511 18.4874 14.1537 18.4874 12.5005C18.4874 10.8472 17.8171 9.3498 16.7342 8.26601C15.6503 7.18217 14.153 6.51278 12.4997 6.51278C10.8464 6.51278 9.34902 7.18308 8.26523 8.26601C7.18139 9.34985 6.512 10.8472 6.512 12.5005C6.512 14.1537 7.1823 15.6512 8.26523 16.7349C9.34907 17.8188 10.8464 18.4882 12.4997 18.4882ZM17.4961 17.4969C16.217 18.7761 14.4509 19.5665 12.4997 19.5665C10.5485 19.5665 8.78236 18.7761 7.50326 17.4969C6.22412 16.2178 5.4337 14.4507 5.4337 12.5005C5.4337 10.5492 6.22412 8.78316 7.50326 7.50407C8.78241 6.22492 10.5485 5.43451 12.4997 5.43451C14.4501 5.43451 16.218 6.22492 17.4961 7.50407C18.7753 8.78321 19.5657 10.5493 19.5657 12.5005C19.5657 14.4517 18.7753 16.2178 17.4961 17.4969ZM12.8957 1.17431L14.9341 3.40617L17.8188 2.49197C18.1031 2.40211 18.4057 2.55983 18.4946 2.84317C18.4992 2.85876 18.5038 2.87434 18.5074 2.88993L19.1585 5.84155L22.1101 6.49166C22.4008 6.55585 22.5851 6.84285 22.5209 7.13353C22.5163 7.15554 22.5099 7.17663 22.5034 7.1968L21.5947 10.0641L23.8266 12.1025C24.0448 12.3024 24.0604 12.6417 23.8605 12.8609C23.8495 12.8728 23.8385 12.8838 23.8266 12.8948L21.5947 14.9332L22.5089 17.8179C22.5988 18.1021 22.4411 18.4047 22.1568 18.4937C22.1412 18.4983 22.1257 18.5028 22.1101 18.5065L19.1585 19.1575L18.5083 22.1092C18.4442 22.3998 18.1571 22.5841 17.8665 22.52C17.8445 22.5154 17.8234 22.509 17.8032 22.5025L14.9359 21.5938L12.8975 23.8257C12.6976 24.0439 12.3583 24.0595 12.1391 23.8596C12.1272 23.8486 12.1162 23.8376 12.1052 23.8257L10.0668 21.5938L7.18211 22.508C6.89787 22.5979 6.59526 22.4402 6.50632 22.1559C6.50174 22.1403 6.49715 22.1247 6.49348 22.1092L5.84246 19.1575L2.89084 18.5074C2.60016 18.4432 2.41587 18.1562 2.48005 17.8655C2.48463 17.8435 2.49105 17.8225 2.49747 17.8023L3.40617 14.9349L1.17431 12.8966C0.956076 12.6967 0.94049 12.3574 1.14038 12.1382C1.15139 12.1263 1.16239 12.1153 1.17431 12.1043L3.40617 10.0659L2.49198 7.1812C2.40211 6.89695 2.55983 6.59435 2.84409 6.5054C2.85967 6.50082 2.87526 6.49623 2.89085 6.49257L5.84247 5.84154L6.49258 2.88992C6.55677 2.59925 6.84377 2.41495 7.13445 2.47913C7.15646 2.48371 7.17755 2.49013 7.19772 2.49747L10.0651 3.40617L12.1034 1.17431C12.3033 0.956076 12.6426 0.94049 12.8618 1.14038C12.8737 1.15139 12.8847 1.16239 12.8957 1.17431ZM14.3757 4.38461L12.5005 2.33155L10.6592 4.34792C10.5254 4.52397 10.2906 4.60742 10.0669 4.53681L7.4188 3.69781L6.82369 6.40107C6.78243 6.60371 6.62563 6.77334 6.41107 6.82104L3.69865 7.41798L4.53766 10.0661L4.53582 10.067C4.59634 10.2596 4.54499 10.4787 4.38544 10.6236L2.33239 12.4988L4.34875 14.34C4.52573 14.4739 4.60826 14.7086 4.53765 14.9324L3.69864 17.5805L6.4019 18.1756C6.60455 18.2168 6.77418 18.3736 6.82187 18.5882L7.41882 21.3006L10.0669 20.4616L10.0678 20.4634C10.2604 20.4029 10.4795 20.4543 10.6244 20.6138L12.4996 22.6669L14.3408 20.6505C14.4747 20.4735 14.7095 20.391 14.9332 20.4616L17.5813 21.3006L18.1764 18.5974C18.2177 18.3947 18.3745 18.2251 18.589 18.1774L21.3014 17.5804L20.4624 14.9323L20.4643 14.9314C20.4037 14.7389 20.4551 14.5197 20.6146 14.3739L22.6677 12.4987L20.6513 10.6575C20.4744 10.5236 20.3918 10.2889 20.4624 10.0652L21.3015 7.41705L18.5982 6.82194C18.3955 6.78068 18.2259 6.62388 18.1782 6.40932L17.5813 3.6969L14.9332 4.53591L14.9323 4.53407C14.7397 4.59459 14.5205 4.54416 14.3757 4.38461Z"/>
</mask>
<path d="M12.9516 11.3378L12.4758 11.4913L12.5526 11.7295L12.7893 11.8108L12.9516 11.3378ZM12.5005 9.93857L12.9764 9.78514L12.5005 8.30918L12.0246 9.78514L12.5005 9.93857ZM12.0493 11.3378L11.5735 11.1844L11.5734 11.1846L12.0493 11.3378ZM11.5377 11.7101L11.5368 12.2101H11.5377V11.7101ZM10.066 11.7074L10.0669 11.2074L8.51852 11.2045L9.77281 12.1124L10.066 11.7074ZM11.258 12.5702L11.5515 12.1654L11.5512 12.1652L11.258 12.5702ZM11.4542 13.1726L11.9295 13.3279L11.9301 13.3261L11.4542 13.1726ZM10.9967 14.5738L10.5214 14.4185L10.0411 15.8892L11.2912 14.9778L10.9967 14.5738ZM12.1777 13.7127L12.4723 14.1168L12.4803 14.1108L12.1777 13.7127ZM12.8178 13.7063L12.5223 14.1097L12.5231 14.1103L12.8178 13.7063ZM14.007 14.5738L13.7124 14.9777L14.963 15.8899L14.4823 14.4185L14.007 14.5738ZM13.5559 13.1928L14.0312 13.0376L14.0284 13.0291L14.0253 13.0207L13.5559 13.1928ZM12.9543 11.3388L13.4301 11.1851L13.3532 10.947L13.1167 10.8658L12.9543 11.3388ZM13.4275 11.1844L12.9764 9.78514L12.0246 10.092L12.4758 11.4913L13.4275 11.1844ZM12.0246 9.78514L11.5735 11.1844L12.5252 11.4913L12.9764 10.092L12.0246 9.78514ZM11.5734 11.1846C11.5712 11.1914 11.5666 11.1981 11.5599 11.2031C11.5539 11.2075 11.547 11.2101 11.5377 11.2101V12.2101C11.9999 12.2101 12.3908 11.9086 12.5253 11.4911L11.5734 11.1846ZM11.5386 11.2101L10.0669 11.2074L10.0651 12.2074L11.5368 12.2101L11.5386 11.2101ZM9.77281 12.1124L10.9648 12.9752L11.5512 12.1652L10.3592 11.3023L9.77281 12.1124ZM10.9645 12.975C10.9696 12.9787 10.9752 12.9854 10.9782 12.9946C10.981 13.0028 10.9811 13.0108 10.9784 13.0192L11.9301 13.3261C12.0716 12.8873 11.9054 12.422 11.5515 12.1654L10.9645 12.975ZM10.9789 13.0174L10.5214 14.4185L11.472 14.729L11.9295 13.3279L10.9789 13.0174ZM11.2912 14.9778L12.4723 14.1168L11.8832 13.3087L10.7021 14.1697L11.2912 14.9778ZM12.4803 14.1108C12.4855 14.1068 12.4935 14.1037 12.5024 14.1035C12.5103 14.1034 12.5165 14.1054 12.5223 14.1097L13.1132 13.3029C12.733 13.0245 12.2285 13.0462 11.8752 13.3147L12.4803 14.1108ZM12.5231 14.1103L13.7124 14.9777L14.3017 14.1698L13.1124 13.3024L12.5231 14.1103ZM14.4823 14.4185L14.0312 13.0376L13.0806 13.3481L13.5318 14.729L14.4823 14.4185ZM14.0253 13.0207C14.0229 13.014 14.0222 13.0051 14.025 12.9959C14.0274 12.9878 14.0317 12.9813 14.0391 12.976L13.4523 12.1663C13.0659 12.4463 12.931 12.9411 13.0865 13.365L14.0253 13.0207ZM13.4685 11.2116C13.4614 11.2119 13.4527 11.2098 13.4447 11.2044C13.4375 11.1995 13.4328 11.1933 13.4301 11.1851L12.4786 11.4925C12.6259 11.9484 13.0591 12.2317 13.5149 12.2105L13.4685 11.2116ZM13.1167 10.8658L13.1139 10.8649L12.7893 11.8108L12.792 11.8117L13.1167 10.8658ZM13.0123 8.0277L13.964 7.72061L13.6208 6.65725L12.6019 7.11578L13.0123 8.0277ZM13.854 10.6364L12.9023 10.9434L13.1264 11.6378L13.856 11.6364L13.854 10.6364ZM16.5993 10.6309V9.63086L16.5973 9.63086L16.5993 10.6309ZM16.9148 11.6028L16.3298 10.7918L15.6401 11.2892L16.0202 12.0499L16.9148 11.6028ZM16.9157 11.6047L17.5019 12.4148L18.1897 11.9171L17.8102 11.1577L16.9157 11.6047ZM14.692 13.2139L14.1058 12.4038L13.5149 12.8314L13.7415 13.5247L14.692 13.2139ZM15.5448 15.8226L14.5943 16.1333L14.5946 16.1342L15.5448 15.8226ZM15.1991 16.5011L15.5068 17.4526L15.5098 17.4517L15.1991 16.5011ZM14.6838 16.3994L15.33 15.6362L15.3023 15.6128L15.273 15.5914L14.6838 16.3994ZM12.4987 14.8057L13.0879 13.9977L12.4986 13.5679L11.9093 13.9979L12.4987 14.8057ZM10.2806 16.4241L10.8691 17.2326L10.87 17.2319L10.2806 16.4241ZM9.53052 16.3067L8.72133 16.8943L8.72353 16.8973L9.53052 16.3067ZM9.4535 15.8253L10.406 16.1299L10.8231 14.8253H9.4535V15.8253ZM9.45166 15.8253L8.50116 15.5146L8.07269 16.8253H9.45166V15.8253ZM10.3044 13.2167L11.2549 13.5274L11.4815 12.8341L10.8907 12.4066L10.3044 13.2167ZM8.08081 11.6074L8.66709 10.7973L8.66643 10.7968L8.08081 11.6074ZM7.96069 10.8555L7.15277 10.2662L7.15116 10.2684L7.96069 10.8555ZM8.43566 10.6345L8.36406 11.632L8.39897 11.6345L8.43396 11.6345L8.43566 10.6345ZM11.1415 10.6391L11.1398 11.6391L11.8693 11.6403L12.0932 10.9461L11.1415 10.6391ZM11.9842 8.02669L12.9359 8.33368L12.9362 8.33271L11.9842 8.02669ZM12.66 7.67916L12.354 8.63119L12.3559 8.63182L12.66 7.67916ZM13.0084 8.02944L12.0544 8.32933L12.3921 9.40339L13.4188 8.94135L13.0084 8.02944ZM16.7342 16.7349L17.441 17.4423L17.4413 17.4421L16.7342 16.7349ZM16.7342 8.26601L17.4416 7.55918L17.4413 7.5589L16.7342 8.26601ZM8.26523 8.26601L7.5584 7.55862L7.55812 7.5589L8.26523 8.26601ZM8.26523 16.7349L7.55784 17.4418L7.55812 17.4421L8.26523 16.7349ZM17.4961 17.4969L16.789 16.7898L16.789 16.7898L17.4961 17.4969ZM7.50326 17.4969L8.21038 16.7898L8.21037 16.7898L7.50326 17.4969ZM7.50326 7.50407L8.21036 8.21118L8.21037 8.21117L7.50326 7.50407ZM17.4961 7.50407L16.7888 8.2109L16.789 8.21117L17.4961 7.50407ZM12.8957 1.17431L13.6341 0.499923L13.6305 0.496029L12.8957 1.17431ZM14.9341 3.40617L14.1957 4.08055L14.6268 4.55256L15.2362 4.35944L14.9341 3.40617ZM17.8188 2.49197L17.5174 1.53849L17.5167 1.5387L17.8188 2.49197ZM18.4946 2.84317L19.454 2.56099L19.4514 2.55231L19.4487 2.54367L18.4946 2.84317ZM18.5074 2.88993L19.4841 2.67452L19.4809 2.66091L18.5074 2.88993ZM19.1585 5.84155L18.1819 6.05694L18.3195 6.68074L18.9434 6.81814L19.1585 5.84155ZM22.1101 6.49166L22.3257 5.51518L22.3252 5.51507L22.1101 6.49166ZM22.5209 7.13353L21.5443 6.91792L21.5419 6.92958L22.5209 7.13353ZM22.5034 7.1968L21.5505 6.89361L21.5502 6.8947L22.5034 7.1968ZM21.5947 10.0641L20.6415 9.76204L20.4483 10.3714L20.9204 10.8025L21.5947 10.0641ZM23.8266 12.1025L24.502 11.3651L24.501 11.3641L23.8266 12.1025ZM23.8605 12.8609L24.5953 13.5392L24.5994 13.5348L23.8605 12.8609ZM23.8266 12.8948L24.501 13.6332L24.5049 13.6296L23.8266 12.8948ZM21.5947 14.9332L20.9204 14.1948L20.4484 14.6259L20.6415 15.2353L21.5947 14.9332ZM22.5089 17.8179L23.4624 17.5165L23.4622 17.5158L22.5089 17.8179ZM22.1568 18.4937L22.439 19.453L22.4473 19.4506L22.4555 19.4481L22.1568 18.4937ZM22.1101 18.5065L22.3255 19.4831L22.3391 19.4799L22.1101 18.5065ZM19.1585 19.1575L18.9431 18.181L18.3193 18.3186L18.1819 18.9424L19.1585 19.1575ZM18.5083 22.1092L19.4848 22.3248L19.4849 22.3243L18.5083 22.1092ZM17.8665 22.52L18.0821 21.5434L18.0704 21.541L17.8665 22.52ZM17.8032 22.5025L18.1064 21.5496L18.1053 21.5493L17.8032 22.5025ZM14.9359 21.5938L15.238 20.6406L14.6286 20.4474L14.1975 20.9195L14.9359 21.5938ZM12.8975 23.8257L13.6349 24.5011L13.6359 24.5001L12.8975 23.8257ZM12.1391 23.8596L11.4609 24.5944L11.4652 24.5984L12.1391 23.8596ZM12.1052 23.8257L11.3668 24.5001L11.3704 24.504L12.1052 23.8257ZM10.0668 21.5938L10.8052 20.9195L10.3741 20.4474L9.76473 20.6406L10.0668 21.5938ZM7.18211 22.508L7.48355 23.4615L7.48422 23.4613L7.18211 22.508ZM6.50632 22.1559L5.54695 22.4381L5.54938 22.4463L5.55195 22.4545L6.50632 22.1559ZM6.49348 22.1092L5.51686 22.3246L5.52007 22.3382L6.49348 22.1092ZM5.84246 19.1575L6.81899 18.9421L6.6814 18.3183L6.05756 18.1809L5.84246 19.1575ZM2.89084 18.5074L2.67522 19.4839L2.67574 19.484L2.89084 18.5074ZM2.48005 17.8655L3.4566 18.0812L3.45903 18.0695L2.48005 17.8655ZM2.49747 17.8023L3.4504 18.1055L3.45074 18.1044L2.49747 17.8023ZM3.40617 14.9349L4.35944 15.237L4.55257 14.6277L4.08055 14.1966L3.40617 14.9349ZM1.17431 12.8966L0.498869 13.634L0.499933 13.6349L1.17431 12.8966ZM1.14038 12.1382L0.405563 11.4599L0.401561 11.4643L1.14038 12.1382ZM1.17431 12.1043L0.499924 11.3659L0.496038 11.3695L1.17431 12.1043ZM3.40617 10.0659L4.08055 10.8043L4.55257 10.3732L4.35945 9.76381L3.40617 10.0659ZM2.49198 7.1812L1.53849 7.48263L1.5387 7.4833L2.49198 7.1812ZM2.84409 6.5054L2.56191 5.54604L2.55366 5.54847L2.54546 5.55103L2.84409 6.5054ZM2.89085 6.49257L2.67544 5.51594L2.66182 5.51915L2.89085 6.49257ZM5.84247 5.84154L6.05786 6.81807L6.68165 6.68048L6.81906 6.05664L5.84247 5.84154ZM6.49258 2.88992L5.5161 2.6743L5.51599 2.67482L6.49258 2.88992ZM7.13445 2.47913L6.91884 3.45568L6.9305 3.45811L7.13445 2.47913ZM7.19772 2.49747L6.85598 3.43727L6.87566 3.44442L6.89561 3.45074L7.19772 2.49747ZM10.0651 3.40617L9.76296 4.35944L10.3723 4.55257L10.8035 4.08055L10.0651 3.40617ZM12.1034 1.17431L11.366 0.498869L11.3651 0.499934L12.1034 1.17431ZM12.8618 1.14038L13.5401 0.40557L13.5357 0.401561L12.8618 1.14038ZM14.3757 4.38461L15.116 3.71235L15.114 3.71021L14.3757 4.38461ZM12.5005 2.33155L13.2389 1.65716L12.5004 0.848653L11.7621 1.65724L12.5005 2.33155ZM10.6592 4.34792L9.9208 3.67361L9.89047 3.70682L9.86324 3.74263L10.6592 4.34792ZM10.0669 4.53681L9.76487 5.49011L9.76593 5.49044L10.0669 4.53681ZM7.4188 3.69781L7.72084 2.74451L6.6775 2.41394L6.44219 3.48281L7.4188 3.69781ZM6.82369 6.40107L5.84708 6.18607L5.84538 6.19379L5.8438 6.20154L6.82369 6.40107ZM6.41107 6.82104L6.626 7.79767L6.62808 7.79721L6.41107 6.82104ZM3.69865 7.41798L3.48372 6.44136L2.41477 6.67661L2.74535 7.72002L3.69865 7.41798ZM4.53766 10.0661L4.98506 10.9604L5.74893 10.5783L5.49095 9.76405L4.53766 10.0661ZM4.53582 10.067L4.08842 9.17267L3.32634 9.5539L3.58183 10.3668L4.53582 10.067ZM4.38544 10.6236L3.71318 9.88327L3.71105 9.88522L4.38544 10.6236ZM2.33239 12.4988L1.65799 11.7604L0.849487 12.4988L1.65807 13.2372L2.33239 12.4988ZM4.34875 14.34L3.67444 15.0785L3.70858 15.1096L3.74546 15.1375L4.34875 14.34ZM4.53765 14.9324L5.49094 15.2344L5.49128 15.2333L4.53765 14.9324ZM3.69864 17.5805L2.74534 17.2784L2.41478 18.3218L3.48364 18.5571L3.69864 17.5805ZM6.4019 18.1756L6.1869 19.1522L6.19463 19.1539L6.20238 19.1555L6.4019 18.1756ZM6.82187 18.5882L7.79851 18.3733L7.79804 18.3712L6.82187 18.5882ZM7.41882 21.3006L6.44219 21.5155L6.67744 22.5845L7.72085 22.2539L7.41882 21.3006ZM10.0669 20.4616L10.9615 20.0148L10.5796 19.2502L9.76488 19.5083L10.0669 20.4616ZM10.0678 20.4634L9.17322 20.9103L9.55422 21.6731L10.3677 21.4174L10.0678 20.4634ZM10.6244 20.6138L9.88411 21.2861L9.88605 21.2882L10.6244 20.6138ZM12.4996 22.6669L11.7612 23.3413L12.4997 24.1498L13.238 23.3412L12.4996 22.6669ZM14.3408 20.6505L15.0793 21.3248L15.1105 21.2907L15.1384 21.2538L14.3408 20.6505ZM14.9332 20.4616L15.2352 19.5083L15.2342 19.508L14.9332 20.4616ZM17.5813 21.3006L17.2792 22.2539L18.3226 22.5845L18.5579 21.5156L17.5813 21.3006ZM18.1764 18.5974L19.153 18.8124L19.1547 18.8046L19.1563 18.7969L18.1764 18.5974ZM18.589 18.1774L18.3741 17.2008L18.372 17.2012L18.589 18.1774ZM21.3014 17.5804L21.5164 18.5571L22.5853 18.3218L22.2547 17.2784L21.3014 17.5804ZM20.4624 14.9323L20.0152 14.0379L19.2511 14.42L19.5091 15.2344L20.4624 14.9323ZM20.4643 14.9314L20.9115 15.8259L21.6738 15.4447L21.4183 14.6316L20.4643 14.9314ZM20.6146 14.3739L19.9403 13.6355L19.9401 13.6357L20.6146 14.3739ZM22.6677 12.4987L23.3421 13.2371L24.1506 12.4987L23.342 11.7603L22.6677 12.4987ZM20.6513 10.6575L21.3256 9.91905L21.2915 9.88787L21.2546 9.85998L20.6513 10.6575ZM20.4624 10.0652L19.5091 9.76312L19.5088 9.76418L20.4624 10.0652ZM21.3015 7.41705L22.2547 7.71909L22.5853 6.67575L21.5164 6.44044L21.3015 7.41705ZM18.5982 6.82194L18.8132 5.84533L18.8055 5.84363L18.7977 5.84205L18.5982 6.82194ZM18.1782 6.40932L17.2016 6.62425L17.202 6.62633L18.1782 6.40932ZM17.5813 3.6969L18.5579 3.48197L18.3227 2.41302L17.2792 2.7436L17.5813 3.6969ZM14.9332 4.53591L14.0388 4.98321L14.4209 5.74721L15.2352 5.4892L14.9332 4.53591ZM14.9323 4.53407L15.8266 4.08677L15.4454 3.32456L14.6324 3.58008L14.9323 4.53407ZM12.0606 8.33478L12.9023 10.9434L14.8057 10.3293L13.964 7.72061L12.0606 8.33478ZM13.856 11.6364L16.6013 11.6309L16.5973 9.63086L13.852 9.63636L13.856 11.6364ZM16.5993 11.6309C16.3432 11.6309 16.1367 11.4243 16.1367 11.1682H18.1367C18.1367 10.3197 17.4477 9.63086 16.5993 9.63086V11.6309ZM16.1367 11.1682C16.1367 11.015 16.2128 10.8762 16.3298 10.7918L17.4997 12.4139C17.8863 12.1351 18.1367 11.679 18.1367 11.1682H16.1367ZM16.0202 12.0499L16.0211 12.0517L17.8102 11.1577L17.8093 11.1558L16.0202 12.0499ZM16.3294 10.7946L14.1058 12.4038L15.2783 14.024L17.5019 12.4148L16.3294 10.7946ZM13.7415 13.5247L14.5943 16.1333L16.4953 15.5119L15.6426 12.9032L13.7415 13.5247ZM14.5946 16.1342C14.5136 15.8871 14.6509 15.6283 14.8885 15.5506L15.5098 17.4517C16.3141 17.1888 16.7613 16.3229 16.495 15.511L14.5946 16.1342ZM14.8914 15.5497C15.0495 15.4985 15.2143 15.5382 15.33 15.6362L14.0376 17.1625C14.4283 17.4934 14.9801 17.6229 15.5068 17.4526L14.8914 15.5497ZM15.273 15.5914L13.0879 13.9977L11.9094 15.6136L14.0945 17.2073L15.273 15.5914ZM11.9093 13.9979L9.69116 15.6163L10.87 17.2319L13.0881 15.6135L11.9093 13.9979ZM9.69203 15.6156C9.8986 15.4653 10.1872 15.5108 10.3375 15.7162L8.72353 16.8973C9.22413 17.5814 10.1839 17.7314 10.8691 17.2326L9.69203 15.6156ZM10.3397 15.7192C10.4303 15.8439 10.4483 15.9976 10.406 16.1299L8.50101 15.5208C8.35785 15.9684 8.42172 16.4816 8.72134 16.8943L10.3397 15.7192ZM9.4535 14.8253H9.45166V16.8253H9.4535V14.8253ZM10.4022 16.136L11.2549 13.5274L9.35392 12.9059L8.50116 15.5146L10.4022 16.136ZM10.8907 12.4066L8.66709 10.7973L7.49452 12.4175L9.71814 14.0268L10.8907 12.4066ZM8.66643 10.7968C8.87517 10.9476 8.91945 11.2368 8.77022 11.4426L7.15116 10.2684C6.65348 10.9547 6.80415 11.9187 7.49519 12.418L8.66643 10.7968ZM8.7686 11.4448C8.67221 11.577 8.51736 11.643 8.36406 11.632L8.50726 9.63709C7.99636 9.60041 7.47657 9.8223 7.15278 10.2662L8.7686 11.4448ZM8.43396 11.6345L11.1398 11.6391L11.1432 9.63911L8.43735 9.63453L8.43396 11.6345ZM12.0932 10.9461L12.9359 8.33368L11.0325 7.7197L10.1898 10.3321L12.0932 10.9461ZM12.9362 8.33271C12.8584 8.57462 12.5988 8.70988 12.354 8.63119L12.966 6.72713C12.1563 6.46689 11.2915 6.91393 11.0321 7.72067L12.9362 8.33271ZM12.3559 8.63182C12.2052 8.58371 12.0973 8.46577 12.0544 8.32933L13.9624 7.72955C13.8186 7.27217 13.4595 6.88464 12.964 6.7265L12.3559 8.63182ZM13.4188 8.94135L13.4226 8.93962L12.6019 7.11578L12.598 7.11752L13.4188 8.94135ZM12.4997 19.4882C14.4288 19.4882 16.1774 18.7049 17.441 17.4423L16.0273 16.0276C15.1233 16.9309 13.8771 17.4882 12.4997 17.4882V19.4882ZM17.4413 17.4421C18.7053 16.1781 19.4874 14.4292 19.4874 12.5005H17.4874C17.4874 13.8782 16.9308 15.1241 16.0271 16.0278L17.4413 17.4421ZM19.4874 12.5005C19.4874 10.5714 18.7041 8.82274 17.4416 7.55918L16.0268 8.97283C16.9301 9.87685 17.4874 11.123 17.4874 12.5005H19.4874ZM17.4413 7.5589C16.1773 6.29492 14.4285 5.51278 12.4997 5.51278V7.51278C13.8775 7.51278 15.1234 8.06941 16.0271 8.97311L17.4413 7.5589ZM12.4997 5.51278C10.5706 5.51278 8.82197 6.29607 7.5584 7.55862L8.97205 8.9734C9.87608 8.0701 11.1223 7.51278 12.4997 7.51278V5.51278ZM7.55812 7.5589C6.29414 8.82288 5.512 10.5717 5.512 12.5005H7.512C7.512 11.1227 8.06863 9.87681 8.97233 8.97311L7.55812 7.5589ZM5.512 12.5005C5.512 14.4296 6.29529 16.1782 7.55784 17.4418L8.97262 16.0281C8.06932 15.1241 7.512 13.8779 7.512 12.5005H5.512ZM7.55812 17.4421C8.8221 18.706 10.5709 19.4882 12.4997 19.4882V17.4882C11.1219 17.4882 9.87604 16.9315 8.97233 16.0278L7.55812 17.4421ZM16.789 16.7898C15.6898 17.8891 14.1751 18.5665 12.4997 18.5665V20.5665C14.7267 20.5665 16.7442 19.6631 18.2032 18.204L16.789 16.7898ZM12.4997 18.5665C10.8243 18.5665 9.30955 17.889 8.21038 16.7898L6.79614 18.204C8.25517 19.6631 10.2727 20.5665 12.4997 20.5665V18.5665ZM8.21037 16.7898C7.11119 15.6906 6.4337 14.175 6.4337 12.5005H4.4337C4.4337 14.7264 5.33705 16.7449 6.79616 18.204L8.21037 16.7898ZM6.4337 12.5005C6.4337 10.825 7.11114 9.31036 8.21036 8.21118L6.79617 6.79695C5.3371 8.25596 4.4337 10.2734 4.4337 12.5005H6.4337ZM8.21037 8.21117C9.3096 7.11194 10.8243 6.43451 12.4997 6.43451V4.43451C10.2727 4.43451 8.25522 5.3379 6.79616 6.79696L8.21037 8.21117ZM12.4997 6.43451C14.1745 6.43451 15.6908 7.11213 16.7888 8.2109L18.2035 6.79723C16.7451 5.33771 14.7256 4.43451 12.4997 4.43451V6.43451ZM16.789 8.21117C17.8883 9.3104 18.5657 10.8251 18.5657 12.5005H20.5657C20.5657 10.2735 19.6623 8.25602 18.2032 6.79696L16.789 8.21117ZM18.5657 12.5005C18.5657 14.1759 17.8882 15.6906 16.789 16.7898L18.2032 18.2041C19.6623 16.745 20.5657 14.7274 20.5657 12.5005H18.5657ZM12.1573 1.84869L14.1957 4.08055L15.6725 2.73179L13.6341 0.499932L12.1573 1.84869ZM15.2362 4.35944L18.1209 3.44525L17.5167 1.5387L14.632 2.45289L15.2362 4.35944ZM18.1202 3.44546C17.8782 3.52199 17.6175 3.38806 17.5405 3.14267L19.4487 2.54367C19.1938 1.73159 18.3279 1.28224 17.5174 1.53849L18.1202 3.44546ZM17.5352 3.12534C17.5365 3.12952 17.5371 3.13179 17.5377 3.1338C17.5382 3.13563 17.5384 3.13607 17.5383 3.13568C17.5381 3.13515 17.5363 3.12883 17.534 3.11896L19.4809 2.66091C19.4698 2.61397 19.4571 2.57184 19.454 2.56099L17.5352 3.12534ZM17.5309 3.10532L18.1819 6.05694L20.135 5.62616L19.484 2.67454L17.5309 3.10532ZM18.9434 6.81814L21.895 7.46825L22.3252 5.51507L19.3736 4.86496L18.9434 6.81814ZM21.8945 7.46814C21.649 7.41393 21.4888 7.16966 21.5444 6.91794L23.4974 7.34913C23.6813 6.51605 23.1525 5.69777 22.3257 5.51518L21.8945 7.46814ZM21.5419 6.92958C21.5455 6.91212 21.5489 6.89953 21.5506 6.89386C21.552 6.88869 21.5527 6.88684 21.5505 6.89361L23.4564 7.49999C23.4642 7.47542 23.4841 7.41303 23.4999 7.33748L21.5419 6.92958ZM21.5502 6.8947L20.6415 9.76204L22.548 10.3663L23.4567 7.49891L21.5502 6.8947ZM20.9204 10.8025L23.1522 12.8409L24.501 11.3641L22.2691 9.32576L20.9204 10.8025ZM23.1512 12.8399C22.963 12.6676 22.9497 12.3755 23.1217 12.187L24.5994 13.5348C25.1711 12.9079 25.1267 11.9372 24.502 11.3651L23.1512 12.8399ZM23.1257 12.1826C23.1328 12.1749 23.1407 12.1671 23.1483 12.16L24.5049 13.6296C24.5364 13.6005 24.5663 13.5706 24.5953 13.5391L23.1257 12.1826ZM23.1522 12.1564L20.9204 14.1948L22.2691 15.6716L24.501 13.6332L23.1522 12.1564ZM20.6415 15.2353L21.5557 18.12L23.4622 17.5158L22.548 14.6311L20.6415 15.2353ZM21.5555 18.1193C21.4787 17.8764 21.6137 17.6158 21.8582 17.5393L22.4555 19.4481C23.2684 19.1937 23.7189 18.3278 23.4624 17.5165L21.5555 18.1193ZM21.8747 17.5343C21.8705 17.5355 21.8682 17.5362 21.8662 17.5368C21.8644 17.5373 21.864 17.5374 21.8644 17.5373C21.8649 17.5372 21.8712 17.5354 21.881 17.5331L22.3391 19.4799C22.386 19.4689 22.4281 19.4563 22.439 19.453L21.8747 17.5343ZM21.8947 17.53L18.9431 18.181L19.3738 20.1341L22.3255 19.483L21.8947 17.53ZM18.1819 18.9424L17.5317 21.8941L19.4849 22.3243L20.135 19.3726L18.1819 18.9424ZM17.5319 21.8935C17.5861 21.6481 17.8303 21.4879 18.0821 21.5435L17.6509 23.4964C18.484 23.6804 19.3022 23.1516 19.4848 22.3248L17.5319 21.8935ZM18.0704 21.541C18.0879 21.5446 18.1004 21.548 18.1061 21.5496C18.1113 21.5511 18.1131 21.5517 18.1064 21.5496L17.5 23.4555C17.5247 23.4633 17.587 23.4832 17.6625 23.4989L18.0704 21.541ZM18.1053 21.5493L15.238 20.6406L14.6337 22.5471L17.5011 23.4558L18.1053 21.5493ZM14.1975 20.9195L12.1591 23.1513L13.6359 24.5001L15.6742 22.2682L14.1975 20.9195ZM12.1601 23.1502C12.3324 22.9621 12.6245 22.9488 12.813 23.1208L11.4652 24.5984C12.0921 25.1702 13.0628 25.1257 13.6349 24.5011L12.1601 23.1502ZM12.8174 23.1248C12.8251 23.1319 12.833 23.1398 12.84 23.1474L11.3704 24.504C11.3995 24.5354 11.4293 24.5653 11.4609 24.5944L12.8174 23.1248ZM12.8436 23.1513L10.8052 20.9195L9.32844 22.2682L11.3668 24.5001L12.8436 23.1513ZM9.76473 20.6406L6.88001 21.5547L7.48422 23.4613L10.3689 22.5471L9.76473 20.6406ZM6.88068 21.5545C7.12357 21.4777 7.38419 21.6128 7.46069 21.8573L5.55195 22.4545C5.80633 23.2675 6.67216 23.718 7.48355 23.4615L6.88068 21.5545ZM7.46569 21.8738C7.46446 21.8696 7.46379 21.8673 7.46321 21.8653C7.46268 21.8635 7.46256 21.863 7.46267 21.8634C7.46282 21.864 7.46458 21.8703 7.4669 21.8801L5.52007 22.3382C5.5311 22.3851 5.54375 22.4272 5.54695 22.4381L7.46569 21.8738ZM7.47001 21.8938L6.81899 18.9421L4.86593 19.3729L5.51696 22.3245L7.47001 21.8938ZM6.05756 18.1809L3.10594 17.5308L2.67574 19.484L5.62736 20.1341L6.05756 18.1809ZM3.10647 17.5309C3.35195 17.5852 3.51211 17.8294 3.45653 18.0811L1.50356 17.65C1.31963 18.483 1.84838 19.3013 2.67522 19.4839L3.10647 17.5309ZM3.45903 18.0695C3.45539 18.0869 3.45198 18.0995 3.45038 18.1052C3.44891 18.1104 3.44825 18.1122 3.4504 18.1055L1.54454 17.4991C1.5367 17.5237 1.5168 17.5861 1.50107 17.6616L3.45903 18.0695ZM3.45074 18.1044L4.35944 15.237L2.4529 14.6328L1.54419 17.5002L3.45074 18.1044ZM4.08055 14.1966L1.84869 12.1582L0.499933 13.6349L2.73179 15.6733L4.08055 14.1966ZM1.84975 12.1591C2.0379 12.3315 2.0512 12.6236 1.87921 12.8121L0.401561 11.4643C-0.170223 12.0912 -0.125747 13.0618 0.49887 13.634L1.84975 12.1591ZM1.87519 12.8165C1.86813 12.8241 1.86028 12.832 1.85259 12.8391L0.496038 11.3695C0.464505 11.3986 0.434643 11.4285 0.405576 11.46L1.87519 12.8165ZM1.84869 12.8427L4.08055 10.8043L2.73179 9.32753L0.499934 11.3659L1.84869 12.8427ZM4.35945 9.76381L3.44525 6.87909L1.5387 7.4833L2.45289 10.368L4.35945 9.76381ZM3.44546 6.87976C3.52225 7.12266 3.38719 7.38328 3.14271 7.45978L2.54546 5.55103C1.73247 5.80542 1.28198 6.67124 1.53849 7.48263L3.44546 6.87976ZM3.12626 7.46477C3.13043 7.46354 3.1327 7.46287 3.1347 7.46229C3.13652 7.46177 3.13696 7.46164 3.13657 7.46175C3.13604 7.4619 3.12973 7.46367 3.11988 7.46599L2.66182 5.51915C2.61491 5.53018 2.57282 5.54283 2.56191 5.54604L3.12626 7.46477ZM3.10624 7.4691L6.05786 6.81807L5.62708 4.86501L2.67546 5.51604L3.10624 7.4691ZM6.81906 6.05664L7.46917 3.10502L5.51599 2.67482L4.86587 5.62644L6.81906 6.05664ZM7.46905 3.10555C7.41485 3.35103 7.17058 3.51119 6.91886 3.45561L7.35004 1.50265C6.51696 1.31871 5.69868 1.84746 5.5161 2.6743L7.46905 3.10555ZM6.9305 3.45811C6.89536 3.45079 6.86959 3.44221 6.85598 3.43727L7.53945 1.55767C7.48551 1.53806 7.41755 1.51664 7.3384 1.50015L6.9305 3.45811ZM6.89561 3.45074L9.76296 4.35944L10.3672 2.45289L7.49982 1.54419L6.89561 3.45074ZM10.8035 4.08055L12.8418 1.84869L11.3651 0.499934L9.32668 2.73179L10.8035 4.08055ZM12.8409 1.84975C12.6685 2.0379 12.3764 2.0512 12.1879 1.87921L13.5357 0.401561C12.9088 -0.170223 11.9382 -0.125747 11.366 0.49887L12.8409 1.84975ZM12.1835 1.87519C12.1759 1.86814 12.168 1.86029 12.1609 1.85259L13.6305 0.496029C13.6014 0.464491 13.5715 0.434636 13.5401 0.405583L12.1835 1.87519ZM15.114 3.71021L13.2389 1.65716L11.7621 3.00595L13.6373 5.059L15.114 3.71021ZM11.7621 1.65724L9.9208 3.67361L11.3977 5.02223L13.2389 3.00587L11.7621 1.65724ZM9.86324 3.74263C9.9743 3.59658 10.1727 3.52157 10.3679 3.58318L9.76593 5.49044C10.4086 5.69328 11.0764 5.45137 11.4552 4.95321L9.86324 3.74263ZM10.3689 3.58352L7.72084 2.74451L7.11677 4.6511L9.76487 5.49011L10.3689 3.58352ZM6.44219 3.48281L5.84708 6.18607L7.80031 6.61607L8.39542 3.9128L6.44219 3.48281ZM5.8438 6.20154C5.87858 6.03072 6.01029 5.88572 6.19406 5.84487L6.62808 7.79721C7.24097 7.66096 7.68628 7.17671 7.80358 6.60059L5.8438 6.20154ZM6.19613 5.84441L3.48372 6.44136L3.91358 8.39461L6.626 7.79767L6.19613 5.84441ZM2.74535 7.72002L3.58436 10.3681L5.49095 9.76405L4.65195 7.11595L2.74535 7.72002ZM4.09026 9.17175L4.08842 9.17267L4.98322 10.9613L4.98506 10.9604L4.09026 9.17175ZM3.58183 10.3668C3.53027 10.2028 3.57232 10.0112 3.71318 9.88328L5.0577 11.3639C5.51767 10.9462 5.66241 10.3163 5.48982 9.76717L3.58183 10.3668ZM3.71105 9.88522L1.65799 11.7604L3.00678 13.2371L5.05984 11.362L3.71105 9.88522ZM1.65807 13.2372L3.67444 15.0785L5.02307 13.6016L3.0067 11.7603L1.65807 13.2372ZM3.74546 15.1375C3.59602 15.0245 3.52322 14.824 3.58402 14.6314L5.49128 15.2333C5.6933 14.5932 5.45543 13.9233 4.95205 13.5425L3.74546 15.1375ZM3.58435 14.6303L2.74534 17.2784L4.65194 17.8825L5.49094 15.2344L3.58435 14.6303ZM3.48364 18.5571L6.1869 19.1522L6.6169 17.1989L3.91364 16.6038L3.48364 18.5571ZM6.20238 19.1555C6.03155 19.1207 5.88656 18.989 5.84571 18.8052L7.79804 18.3712C7.66179 17.7583 7.17754 17.313 6.60143 17.1957L6.20238 19.1555ZM5.84525 18.8031L6.44219 21.5155L8.39545 21.0857L7.7985 18.3733L5.84525 18.8031ZM7.72085 22.2539L10.369 21.4149L9.76488 19.5083L7.11678 20.3473L7.72085 22.2539ZM9.1723 20.9084L9.17322 20.9103L10.9624 20.0166L10.9615 20.0148L9.1723 20.9084ZM10.3677 21.4174C10.2036 21.469 10.012 21.4269 9.88411 21.2861L11.3647 19.9416C10.9471 19.4816 10.3172 19.3368 9.76801 19.5094L10.3677 21.4174ZM9.88605 21.2882L11.7612 23.3413L13.238 21.9925L11.3628 19.9394L9.88605 21.2882ZM13.238 23.3412L15.0793 21.3248L13.6024 19.9762L11.7612 21.9926L13.238 23.3412ZM15.1384 21.2538C15.0253 21.4032 14.8248 21.476 14.6322 21.4152L15.2342 19.508C14.5941 19.306 13.9241 19.5438 13.5433 20.0472L15.1384 21.2538ZM14.6312 21.4149L17.2792 22.2539L17.8833 20.3473L15.2352 19.5083L14.6312 21.4149ZM18.5579 21.5156L19.153 18.8124L17.1998 18.3824L16.6047 21.0856L18.5579 21.5156ZM19.1563 18.7969C19.1215 18.9677 18.9898 19.1127 18.806 19.1536L18.372 17.2012C17.7591 17.3375 17.3138 17.8217 17.1965 18.3978L19.1563 18.7969ZM18.804 19.154L21.5164 18.5571L21.0865 16.6038L18.3741 17.2008L18.804 19.154ZM22.2547 17.2784L21.4157 14.6303L19.5091 15.2344L20.3481 17.8825L22.2547 17.2784ZM20.9096 15.8268L20.9115 15.8259L20.0171 14.037L20.0152 14.0379L20.9096 15.8268ZM21.4183 14.6316C21.4701 14.7965 21.4269 14.9863 21.2892 15.1121L19.9401 13.6357C19.4833 14.0531 19.3374 14.6812 19.5103 15.2312L21.4183 14.6316ZM21.289 15.1123L23.3421 13.2371L21.9933 11.7604L19.9403 13.6355L21.289 15.1123ZM23.342 11.7603L21.3256 9.91905L19.977 11.3959L21.9934 13.2372L23.342 11.7603ZM21.2546 9.85998C21.4041 9.97302 21.4769 10.1735 21.4161 10.3661L19.5088 9.76418C19.3068 10.4043 19.5447 11.0742 20.048 11.455L21.2546 9.85998ZM21.4157 10.3672L22.2547 7.71909L20.3482 7.11502L19.5091 9.76312L21.4157 10.3672ZM21.5164 6.44044L18.8132 5.84533L18.3832 7.79856L21.0865 8.39367L21.5164 6.44044ZM18.7977 5.84205C18.9685 5.87683 19.1135 6.00855 19.1544 6.19231L17.202 6.62633C17.3383 7.23921 17.8225 7.68453 18.3987 7.80184L18.7977 5.84205ZM19.1548 6.19438L18.5579 3.48197L16.6046 3.91184L17.2016 6.62425L19.1548 6.19438ZM17.2792 2.7436L14.6311 3.58261L15.2352 5.4892L17.8833 4.6502L17.2792 2.7436ZM15.8276 4.0886L15.8266 4.08677L14.0379 4.98138L14.0388 4.98321L15.8276 4.0886ZM14.6324 3.58008C14.7931 3.52959 14.9858 3.56894 15.116 3.71235L13.6354 5.05687C14.0553 5.51938 14.6863 5.65959 15.2321 5.48807L14.6324 3.58008Z" fill="#9C9C9C" mask="url(#path-1-outside-1_1465_394)"/>
</svg>
