<svg width="27" height="27" viewBox="0 0 27 27" fill="none" xmlns="http://www.w3.org/2000/svg">
<path d="M11.2602 3.79704L11.2609 3.79642C12.2776 2.9799 13.9441 2.98104 14.9841 3.80917C14.9843 3.80936 14.9846 3.80955 14.9848 3.80974L22.1386 9.5328C22.4761 9.80915 22.7916 10.2637 23 10.809C23.208 11.3535 23.2768 11.9035 23.2117 12.3355L21.8367 20.5636C21.8365 20.5645 21.8364 20.5655 21.8362 20.5664C21.6 21.9176 20.2627 23.0465 18.9089 23.0465H7.3229C5.94487 23.0465 4.64284 21.948 4.40674 20.5785C4.40663 20.5778 4.40651 20.5771 4.4064 20.5765L3.02992 12.3394L3.02953 12.3371C2.95594 11.9029 3.0195 11.3529 3.22663 10.8097C3.43371 10.2667 3.75278 9.81315 4.09914 9.53681L4.10088 9.53541L11.2602 3.79704ZM13.1159 21.4942C14.1163 21.4942 14.9357 20.6749 14.9357 19.6744V16.3954C14.9357 15.3949 14.1163 14.5756 13.1159 14.5756C12.1155 14.5756 11.2962 15.3949 11.2962 16.3954V19.6744C11.2962 20.6749 12.1155 21.4942 13.1159 21.4942Z" stroke="#808080" stroke-opacity="0.55" stroke-width="2"/>
</svg>
