<svg width="25" height="23" viewBox="0 0 25 23" fill="none" xmlns="http://www.w3.org/2000/svg">
<path d="M23.0073 10.543V7.66828C23.0073 6.61423 22.1449 5.75182 21.0909 5.75182V3.83535C21.0909 2.7813 20.2285 1.91889 19.1744 1.91889H13.8178L12.1792 0.280294C11.8055 -0.0934315 11.2018 -0.0934315 10.8281 0.280294L9.18952 1.91889H2.8747C1.29363 1.91889 0 3.21252 0 4.79358V19.1671C0 21.2847 1.71525 23 3.83293 23H21.0811C22.1352 23 22.9976 22.1376 22.9976 21.0835V18.2088C24.0516 18.2088 24.914 17.3464 24.914 16.2924V12.4594C24.914 11.4054 24.0516 10.543 22.9976 10.543H23.0073ZM19.1744 3.83535V5.75182H17.6508L15.7343 3.83535H19.1744ZM11.5085 2.31175L14.9487 5.75188H8.07822L11.5184 2.31175H11.5085ZM2.88445 3.83535H7.28281L5.36635 5.75182H2.88451C2.35747 5.75182 1.92628 5.32063 1.92628 4.79358C1.92628 4.26654 2.35741 3.83535 2.88445 3.83535ZM21.0909 21.0835H3.84268C2.78863 21.0835 1.92622 20.2211 1.92622 19.1671V7.49595C2.22327 7.60136 2.54905 7.66844 2.88445 7.66844H21.0909V10.5431H16.2997C14.182 10.5431 12.4668 12.2584 12.4668 14.3761C12.4668 16.4937 14.182 18.209 16.2997 18.209H21.0909V21.0835ZM16.2997 16.2924C15.2456 16.2924 14.3832 15.43 14.3832 14.3759C14.3832 13.3219 15.2456 12.4594 16.2997 12.4594H23.0073V16.2924H16.2997Z" fill="#9C9C9C"/>
<path d="M17.3186 12.4176C16.7915 12.4176 16.3604 12.8488 16.3604 13.3759C16.3604 13.9029 16.7915 14.3341 17.3186 14.3341C17.8456 14.3341 18.2768 13.9029 18.2768 13.3759C18.2768 12.8488 17.8456 12.4176 17.3186 12.4176Z" fill="#9C9C9C"/>
</svg>
